<svg width="216" height="222" viewBox="0 0 216 222" xmlns="http://www.w3.org/2000/svg">
<defs>
<linearGradient id="bg" x1="0" y1="0" x2="1" y2="1">
<stop offset="0" stop-color="#242426"/><stop offset="1" stop-color="#0b0d0e"/>
</linearGradient>
<linearGradient id="gold" x1="0.75" y1="0.1" x2="0.25" y2="0.95">
<stop offset="0" stop-color="#f6c66d"/><stop offset="1" stop-color="#e2952e"/>
</linearGradient>
<clipPath id="r"><rect x="0" y="0" width="216" height="222" rx="46"/></clipPath>
</defs>
<g clip-path="url(#r)">
<rect x="0" y="0" width="216" height="222" fill="url(#bg)"/>
<g transform="scale(0.25)">
<g transform="translate(0.000000,888.000000) scale(0.100000,-0.100000)">
<path d="M4210 7839 c-85 -5 -201 -18 -257 -29 -56 -11 -111 -20 -123 -20 -11
0 -53 -9 -93 -19 -39 -11 -110 -29 -157 -41 -102 -24 -206 -55 -275 -81 -28
-11 -56 -19 -63 -19 -7 0 -29 -9 -49 -20 -21 -11 -44 -20 -51 -20 -7 0 -30 -9
-50 -20 -20 -10 -82 -41 -137 -67 -55 -26 -138 -69 -185 -96 -47 -27 -94 -53
-105 -59 -37 -17 -92 -52 -186 -119 -311 -220 -573 -477 -818 -800 -48 -63
-175 -257 -203 -308 -16 -31 -40 -74 -53 -96 -13 -22 -29 -51 -34 -65 -6 -14
-16 -32 -21 -40 -6 -8 -13 -22 -16 -30 -5 -14 -19 -45 -73 -161 -12 -25 -21
-50 -21 -56 0 -6 -7 -16 -15 -23 -8 -7 -15 -22 -15 -34 0 -12 -9 -38 -20 -59
-11 -20 -20 -44 -20 -53 0 -8 -8 -36 -19 -62 -25 -65 -55 -169 -81 -287 -12
-55 -29 -129 -37 -165 -8 -36 -21 -112 -29 -170 -7 -58 -18 -136 -23 -175 -13
-91 -14 -551 -1 -635 6 -36 17 -118 25 -183 8 -65 17 -122 20 -127 3 -5 12
-44 20 -87 20 -105 76 -311 116 -423 41 -116 53 -149 70 -186 11 -23 19 -48
19 -56 0 -9 7 -21 15 -28 8 -7 15 -17 15 -24 0 -11 125 -261 166 -331 13 -22
31 -56 41 -75 10 -20 26 -35 36 -35 20 0 277 252 277 271 0 7 -29 68 -63 136
-35 68 -67 136 -71 151 -3 15 -10 27 -15 27 -5 0 -12 13 -16 29 -3 16 -15 46
-26 67 -10 21 -19 45 -19 54 0 9 -6 24 -14 35 -7 11 -17 31 -20 45 -4 14 -16
48 -26 75 -33 92 -42 120 -62 195 -43 160 -68 314 -90 548 -21 239 -21 247 -5
440 24 277 67 513 118 647 10 28 19 58 19 68 0 10 8 39 19 65 10 26 28 74 40
107 26 71 60 153 72 178 5 9 13 25 18 35 5 9 28 58 52 107 77 163 163 302 269
440 25 33 59 80 75 105 50 75 391 410 505 495 189 142 349 243 503 319 200 97
242 116 257 116 6 0 24 7 38 15 29 16 90 39 162 60 25 8 63 21 85 29 22 8 49
15 59 16 11 0 42 7 70 15 157 45 492 85 723 85 135 0 443 -26 533 -45 36 -7
83 -16 105 -20 22 -3 65 -13 95 -22 182 -52 228 -66 252 -79 14 -8 32 -14 40
-14 8 0 31 -9 53 -20 22 -11 43 -20 49 -20 11 0 57 -21 236 -109 163 -80 150
-73 282 -159 67 -44 103 -62 115 -57 16 6 65 58 222 236 43 49 43 50 25 71
-20 21 -140 103 -184 125 -14 7 -43 24 -65 38 -22 14 -58 35 -80 47 -22 12
-53 29 -68 37 -145 81 -344 170 -437 196 -14 4 -29 11 -35 14 -11 8 -144 50
-250 79 -172 48 -409 93 -535 103 -178 14 -445 17 -600 8z" fill="#ffffff"/>
<path d="M6978 6426 c-71 -74 -128 -142 -128 -152 0 -9 7 -24 15 -33 58 -62
160 -213 267 -399 38 -66 154 -302 163 -332 4 -14 11 -29 14 -35 4 -5 20 -50
35 -100 16 -49 37 -114 47 -143 10 -30 19 -65 19 -78 0 -14 7 -38 15 -54 8
-16 19 -60 25 -98 5 -38 14 -81 19 -95 5 -14 14 -76 20 -138 6 -63 16 -130 21
-149 16 -53 23 -360 12 -485 -24 -252 -56 -445 -89 -550 -9 -27 -20 -68 -24
-90 -4 -22 -14 -60 -22 -85 -9 -25 -23 -70 -33 -100 -27 -89 -76 -214 -91
-231 -7 -8 -13 -22 -13 -31 0 -8 -9 -26 -19 -40 -11 -13 -23 -37 -26 -51 -4
-15 -11 -30 -16 -33 -5 -3 -16 -20 -24 -37 -24 -52 -89 -165 -103 -179 -6 -6
-12 -16 -12 -21 0 -39 -284 -403 -419 -537 -214 -213 -444 -396 -596 -475 -16
-9 -50 -29 -75 -45 -25 -16 -58 -36 -75 -44 -16 -9 -38 -20 -47 -26 -62 -36
-130 -69 -228 -109 -41 -18 -90 -38 -108 -46 -18 -8 -42 -15 -53 -15 -11 0
-37 -9 -59 -20 -22 -11 -52 -20 -67 -20 -15 0 -41 -7 -57 -15 -16 -8 -52 -19
-80 -24 -28 -5 -69 -16 -91 -25 -22 -8 -62 -15 -88 -16 -87 0 -100 -15 -238
-279 -30 -58 -62 -116 -69 -128 -22 -35 -4 -44 65 -33 33 5 110 14 172 20 61
6 130 17 153 25 24 8 59 15 79 15 20 0 63 9 96 19 33 11 79 24 103 30 101 26
129 35 168 52 23 11 46 19 52 19 6 0 33 10 59 21 48 22 99 44 163 71 19 9 78
36 131 62 53 25 101 46 106 46 6 0 18 9 28 20 10 11 26 20 35 20 10 0 29 9 43
20 14 11 27 20 30 20 3 0 52 32 109 70 56 39 128 87 158 107 285 193 632 548
844 863 13 19 49 76 81 125 32 50 65 101 74 115 9 14 29 52 45 85 16 33 35 67
41 75 6 8 33 65 59 125 26 61 54 122 62 137 8 14 14 32 14 40 0 7 9 30 20 51
11 20 20 44 20 52 0 8 8 34 19 57 27 63 51 137 62 190 5 26 16 60 24 75 8 15
15 37 15 48 0 11 8 58 19 105 11 47 25 117 31 155 6 39 16 97 22 130 7 38 12
196 12 435 1 396 1 396 -55 675 -5 28 -16 82 -23 121 -7 38 -16 76 -21 84 -5
8 -14 37 -21 64 -12 49 -25 87 -66 203 -52 145 -77 209 -119 301 -116 254
-103 231 -294 527 -75 117 -183 255 -198 255 -7 -1 -69 -61 -139 -134z" fill="#ffffff"/>
<path d="M2965 4290 c-27 -11 -60 -19 -73 -20 -13 0 -33 -5 -45 -12 -12 -6
-51 -19 -87 -27 -45 -11 -66 -21 -68 -33 -2 -12 5 -19 25 -23 31 -6 36 -8 213
-72 69 -24 140 -49 159 -53 19 -5 48 -15 65 -23 17 -8 57 -24 89 -36 123 -44
173 -63 207 -79 19 -9 53 -21 75 -28 22 -6 72 -24 110 -39 39 -14 84 -30 100
-35 17 -5 66 -23 110 -40 44 -17 96 -36 115 -42 19 -6 44 -17 55 -24 11 -8 30
-14 43 -14 12 0 34 -11 47 -25 24 -23 25 -29 25 -162 0 -76 -7 -255 -15 -398
-8 -143 -19 -431 -25 -640 -5 -209 -15 -462 -21 -563 -6 -101 -8 -186 -4 -190
12 -12 38 14 67 68 15 29 33 59 39 67 7 7 19 26 28 42 14 26 47 82 118 199 12
21 25 44 29 52 4 8 25 41 46 73 21 32 38 61 38 64 0 3 17 31 38 62 42 64 48
73 80 127 12 22 31 53 42 69 11 17 27 44 37 62 50 89 140 242 165 279 57 85
60 98 43 246 -8 73 -19 156 -24 183 -5 28 -12 91 -16 140 -4 50 -13 131 -20
180 -8 50 -16 135 -20 190 -11 184 -16 215 -36 225 -10 6 -87 19 -171 30 -84
11 -234 33 -333 49 -99 16 -207 32 -240 36 -33 4 -85 12 -115 20 -30 7 -86 16
-125 20 -83 8 -213 28 -345 55 -52 10 -124 22 -158 25 -35 3 -74 10 -86 15
-52 19 -130 19 -181 0z" fill="#ffffff"/>
<path d="M2194 1925 l-139 -136 75 -70 c84 -80 191 -168 301 -247 84 -60 252
-171 289 -190 14 -7 43 -23 65 -37 22 -13 47 -27 55 -30 8 -4 29 -12 45 -20
17 -8 64 -28 105 -46 41 -17 80 -35 85 -39 6 -5 28 -15 50 -23 22 -8 48 -18
58 -22 16 -7 17 6 17 197 0 168 -3 207 -16 226 -8 12 -23 22 -32 22 -9 0 -28
9 -42 20 -14 11 -31 20 -38 20 -7 0 -25 8 -40 18 -29 19 -48 31 -102 62 -19
11 -48 29 -65 40 -16 11 -41 25 -55 32 -67 34 -270 186 -399 301 -36 31 -68
57 -72 57 -4 0 -69 -61 -145 -135z" fill="#ffffff"/>
</g>
<g transform="translate(0.000000,888.000000) scale(0.100000,-0.100000)">
<path d="M6090 5144 c-19 -9 -80 -27 -135 -40 -151 -37 -253 -63 -322 -85 -34
-10 -82 -22 -105 -25 -24 -4 -52 -11 -62 -17 -11 -5 -45 -16 -75 -23 -127 -30
-188 -46 -219 -60 -18 -8 -43 -14 -55 -14 -12 -1 -40 -8 -62 -16 -22 -8 -67
-21 -100 -29 -88 -21 -143 -35 -210 -55 -33 -10 -82 -23 -110 -29 -27 -6 -90
-22 -140 -36 -49 -14 -115 -32 -145 -40 -30 -8 -95 -26 -145 -40 -49 -14 -117
-32 -150 -39 -33 -8 -73 -19 -90 -24 -75 -27 -134 -44 -184 -53 -29 -5 -63
-15 -74 -21 -11 -6 -46 -16 -76 -23 -31 -7 -126 -32 -211 -55 -85 -23 -188
-50 -229 -60 -41 -10 -80 -25 -88 -33 -12 -11 0 -16 74 -30 48 -10 106 -17
129 -17 22 0 63 -7 90 -15 45 -13 143 -29 339 -56 39 -5 120 -18 180 -28 61
-11 160 -27 220 -36 297 -46 368 -57 467 -70 58 -7 116 -20 127 -27 23 -14 28
-40 35 -198 3 -58 11 -157 20 -220 8 -63 19 -158 25 -210 21 -201 34 -308 45
-375 12 -69 12 -70 26 -43 16 29 201 346 237 406 13 20 28 48 35 62 7 14 26
45 43 70 17 25 65 103 106 173 91 157 101 175 164 279 27 46 53 90 58 98 4 8
27 47 52 85 42 67 144 237 175 293 8 15 32 52 51 82 20 30 58 91 83 135 26 44
76 127 111 185 58 96 92 152 121 201 6 11 19 28 29 39 18 20 14 50 -7 50 -7
-1 -29 -8 -48 -16z" fill="url(#gold)"/>
</g>
</g>
</g>
</svg>